<?xml version="1.0" encoding="UTF-8"?><svg id="Lager_2" xmlns="http://www.w3.org/2000/svg" viewBox="0 0 445.13 99.96"><defs><style>.cls-1{fill:#fff;}</style></defs><g id="Lager_1-2"><g><path class="cls-1" d="M111.37,65.67c-.8-.42-1.62-.81-2.43-1.18-.05-.02-.1-.04-.14-.05,.04-.11,.08-.22,.13-.33,.34-.86,.26-1.07-.56-1.67-.32-.23-.67-.45-.59-.89,.18-.07,.26,0,.33,.09,.2,.26,.4,.55,.82,.42,.34-.1,.39-.4,.44-.68,.21-1.06,.26-2.1-.15-3.16-.23-.6-.45-.94-1.15-1.11-.97-.23-.97-.32-.49-1.12,.4-.66,.26-1-.5-1.27-.38-.13-.76-.14-1.12,.03-.25,.11-.5,.19-.77,.17-.24-.02-.47-.06-.52-.31-.04-.21,.14-.3,.31-.39,.37-.19,.77-.34,1.09-.58,.67-.49,.63-1.12-.1-1.53-.52-.29-1.12-.45-1.73-.57-.43-.09-1.06-.09-1.12-.57-.05-.45,.58-.45,.93-.63,.65-.32,.73-.56,.2-1.01-.34-.29-.54-.43-.2-.9,.56-.78,.13-1.47-.89-1.67-.12-.02-.23,0-.35-.02-.16-.02-.3-.08-.32-.24-.02-.15,.03-.29,.17-.36,.2-.11,.42-.17,.61-.29,.55-.34,.65-.88,.22-1.34-.22-.23-.52-.53-.81-.55-.85-.06-.97-.28-.98-1.1-.02-1.31-.77-2.55-1.3-3.78-.22-.5-.67-.53-1.07-.09-.34,.37-.64,.76-.71,1.28-.07,.55-.27,1.09-.32,1.63-.04,.47-.29,.67-.75,.77-.59,.13-1.12,.14-1.55-.39,.43-.22,1.01-.26,1.07-.84,.12-1.03-.48-1.71-1.66-1.8-.23-.02-.48,.06-.57-.2-.1-.28-.09-.57,.2-.75,.31-.2,.66-.35,1-.52,.25-.13,.42-.29,.39-.58-.06-.79-.79-1.48-1.71-1.58-.23-.03-.48,.03-.68-.04-.38-.15-.84-.3-.42-.82,.23-.28,.19-.6-.06-.87-.26-.28-.26-.56-.09-.87,.21-.39,.09-.67-.34-.85-.36-.15-.52-.39-.44-.75,.16-.73-.47-1.29-.53-1.98-.03-.36-.82-.59-1.03-.32-.38,.5-1.09,.87-1.17,1.47-.12,.81-.32,1.6-.5,2.39-.21,.96-.21,1.01-1.3,1.17-.7,.1-.87,.45-.46,1,.17,.23,.39,.43,.54,.67,.29,.48,.16,.67-.45,.74-.82,.1-1,.21-.87,.87,.16,.85-.04,1.67,.05,2.53-.32-.05-.56-.05-.77-.12-.68-.23-1.44-.2-2.07-.56-.79-.44-.78-.87,0-1.31,.48-.27,.92-.62,1.55-.61,.38,0,.68-.19,.72-.55,.03-.34-.17-.59-.53-.72-.67-.24-1.28-.66-2.06-.41-.01-.36,.22-.44,.42-.54,.34-.16,.7-.3,1.02-.48,.63-.34,.7-.55,.48-1.19-.06-.16-.11-.33-.16-.49-.24-.75-1.1-1.24-1.97-1.03-.48,.11-.65-.07-.77-.4-.18-.49-.03-.85,.51-1.12,.33-.17,.7-.29,1.05-.42,.35-.13,.57-.35,.62-.69,.09-.68-1.24-2.19-1.92-2.03-.94,.23-1.44-.32-2.17-.54,.13-.16,.19-.26,.27-.33,.57-.45,.77-.92,.21-1.52-.29-.32-.28-.71-.07-1.07,.21-.36,.04-.59-.29-.77-.26-.15-.52-.3-.77-.46-.17-.1-.29-.26-.18-.44,.65-1.05-.5-1.85-.49-2.83,0-.39-.75-.59-1-.32-.55,.61-1.32,1.2-1.34,1.98-.02,.73-1.03,1.3-.35,2.09,0,.02-.09,.1-.14,.15-.39,.28-.44,.62-.23,1.02,.21,.4-.02,.68-.37,.87-.42,.25-.88,.44-1.41,.31-.29-.07-.53,0-.68,.26-.16,.27-.14,.54,.08,.77,.26,.26,.55,.49,.81,.74,.32,.32,.27,.73,.21,1.08-.08,.38-.53,.32-.87,.33-.15,0-.31,.01-.46,0-.71-.08-.69,.83-1.17,.8-.51-.03-.92-.61-1.58-.36-.13,.05-.27,.13-.42,.13-.11,.01-.23-.01-.34-.11,.07-.15,.19-.2,.32-.23,.15-.03,.32-.03,.46-.1,.2-.1,.55-.16,.58-.29,.14-.69,.83-1.05,1.16-1.62,.21-.35,.21-.77-.19-.91-.8-.28-1.62-.89-2.55-.24-.15,.11-.32,.23-.5,.26-.59,.13-1.33,.33-1.72-.1-.23-.25-.47-.35-.73-.39,.17-.19,.27-.4,.27-.62,.12-.07,.24-.13,.37-.18,.77-.3,1.52-.68,2.22-1.08,.7-.41,.89-1.61,.32-2-.42-.29-.93-.59-1.43-.62-1.06-.08-1.95-.64-3-.73-.02,0-.04,0-.06-.01-.27-.46-.34-.96-.42-1.47,0-.03-.01-.07-.02-.1,.56-.32,1.09-.69,1.78-.8,.42-.07,.58-.39,.33-.71-.33-.45-.97-.53-1.41-.86-.24-.18-.51-.08-.76,.06-.14,.07-.31,.1-.4-.05-.11-.19,.02-.36,.21-.42,.51-.15,1-.36,1.44-.64,.45-.29,.74-.62,.34-1.13-.09-.1-.11-.25-.14-.39-.22-.71-1.09-1.23-1.92-1.12-.64,.08-.9-.14-.9-.72,0-.45,.22-.72,.69-.84,.45-.12,.86-.31,1.23-.55,.23-.15,.38-.34,.39-.6,.03-1.08-1.32-2.13-2.46-1.84-.47,.13-.73,.08-.96-.26-.14-.21-.49-.23-.57-.58,.76-.46,.87-1.03,.22-1.71-.2-.21-.17-.5-.08-.79,.26-.81,.24-.82-.58-1.26-.43-.23-.8-.42-.39-.95,.21-.27,.16-.62-.09-.87-.28-.29-.34-.6-.33-.96,.01-.49-.14-.9-.77-1-.59-.1-.78,.28-1.03,.65-.47,.69-.81,1.42-1.12,2.19-.28,.67,.3,1.47-.46,2.03-.03,.03,.04,.2,.11,.28,.31,.45,0,.7-.36,.94-.45,.31-.95,.39-1.51,.43-.77,.06-.9,.38-.45,.96,.17,.23,.36,.48,.61,.62,.55,.31,.39,.84,.37,1.19-.03,.39-.6,.28-.98,.26-1.03-.03-1.33,.34-.9,1.2,.07,.13,.12,.27,.15,.4-.27-.19-.56-.29-.8-.25-.92,.16-1.43-.38-2.33-.58,1.02-.62,1.22-1.26,.56-2.03-.14-.17-.18-.41-.04-.59,.48-.64,.19-.98-.49-1.29-.27-.12-.59-.32-.71-.6,.12-.39,.69-.74,.34-1.05-.6-.52-.62-1.15-.73-1.79-.05-.29-.29-.48-.64-.52-.35-.03-.64,.13-.72,.41-.26,.81-1.41,1.26-1.11,2.29,.01,.04-.07,.12-.13,.16-.64,.61,.06,1.56-.66,2.16-.04,.03,.03,.2,.1,.28,.34,.4,.04,.67-.27,.87-.44,.28-.91,.53-1.5,.38-.3-.08-.52,.03-.67,.26-.18,.28-.14,.53,.1,.76,.26,.25,.53,.5,.78,.76,.32,.32,.26,.74,.17,1.08-.1,.37-.54,.31-.89,.32-.08,0-.15,0-.23,0-.83,.06-1.03,.29-.73,.99,.23,.52,.28,1.07,.13,1.52-.15,.5-.21,.9,.06,1.36,.18,.31-.03,.49-.38,.4-.42-.12-.78-.19-1.19,.06-.85,.52-1.02,1.22-.33,2.26,.4,.61,.37,1.09-.07,1.61-.19,.22-.43,.44-.21,.74,.23,.31,.57,.45,1,.39,.23-.03,.45-.08,.68-.1,.33-.01,.64,.08,.71,.4,.07,.32-.18,.53-.46,.66-.39,.18-.83,.1-1.25,.09-.43-.02-.9-.06-1.15,.32-.32,.48-.75,.55-1.28,.42-.32-.08-.61-.02-.9,.06-.47,.13-1.08,.13-1.08,.74,0,.55,.47,.84,.95,1.08,.16,.08,.37,.11,.56,.11,.52,0,.88,.15,1.01,.66,.1,.42,.44,.64,.91,.67,.45,.02,.78,.18,1.04,.59-.64,.2-1.29,.01-1.84,.3-.41,.22-1.6,.63-1.94,.94-.97,.87-.86-.88-1.77-.44-.13,.06,.03-1.12-.05-1.23-.24-.3-.72-.2-1.02-.46,.12-.14,.19-.26,.3-.35,.59-.46,.71-.94,.18-1.52-.23-.25-.34-.59-.13-.87,.43-.6,.1-.85-.47-1.1-.5-.22-.78-.55-.46-1.1,.08-.14,.11-.39,.02-.5-.43-.52-.52-1.11-.58-1.73-.03-.35-.35-.62-.77-.68-.37-.05-.6,.19-.71,.44-.34,.75-1.52,1.18-1.06,2.23,0,.03-.02,.06-.05,.09-.59,.83-.58,1.77-.59,2.69,0,.4-.18,.67-.56,.83-.42,.18-.84,.34-1.33,.2-.36-.1-.58,.11-.73,.38-.14,.25-.07,.47,.14,.67,.24,.23,.44,.48,.7,.69,.44,.35,.45,.83,.3,1.23-.14,.38-.65,.25-1.03,.27-.89,.05-1.13,.32-.82,1.05,.2,.48,.39,1.03,.18,1.41-.36,.64-.17,1.16,.12,1.68-.22,.19-.41,.17-.6,.11-.72-.24-1.19,.07-1.53,.59-.38,.59-.31,1.19,.09,1.75,.35,.5,.51,.99-.04,1.52-.73-.81-1.61-1.29-2.9-1.19,.53-.42,1.02-.57,1.44-.8,.62-.34,.7-.56,.48-1.2-.05-.16-.12-.33-.17-.49-.26-.97-.9-1.35-1.98-1.11-.48,.11-.67-.08-.74-.42-.08-.42-.05-.83,.51-1.03,.39-.14,.77-.33,1.15-.48,.32-.13,.53-.35,.51-.63-.05-1.05-.77-2.33-2.32-2.02-.34,.06-.61,.05-.83-.19-.23-.25-.67-.12-.93-.42,.13-.13,.25-.26,.37-.39,.63-.62,.64-.63,.11-1.35-.19-.25-.34-.54-.17-.77,.54-.74,.19-1.12-.57-1.43-.23-.1-.41-.29-.64-.46,.22-.42,.84-.86,.33-1.29-.53-.44-.58-.93-.64-1.48-.04-.32-.2-.61-.61-.67-.39-.05-.69,.15-.84,.45-.2,.42-.43,.8-.82,1.1-.18,.14-.25,.36-.24,.57,.01,.35-.15,.64-.29,.97-.26,.6-.03,1.32-.52,1.9-.04,.05,.05,.19,.07,.29,.2,.78,.19,.76-.53,1.11-.4,.19-.79,.24-1.22,.16-.27-.05-.56-.04-.7,.22-.16,.28-.09,.54,.13,.77,.21,.21,.42,.41,.64,.6,.39,.34,.6,.75,.43,1.22-.17,.48-.68,.35-1.09,.36-.08,0-.15,0-.23,.02-.59,.1-.8,.34-.61,.88,.19,.55,.25,1.12,.15,1.64-.12,.6-.05,1.13,.23,1.64-.39,.24-.74,.11-1.08,.12-.68,.02-1.22,.42-1.26,.99-.02,.4-.09,.87,.22,1.2,.57,.63,.39,1.19,0,1.81-.37,.56-.14,.93,.57,.97,.26,.02,.53-.04,.8-.04,.37,0,.75,.07,.77,.46,.02,.33-.25,.6-.62,.66-.38,.06-.77,.05-1.15,.06-.31,0-.69-.06-.86,.18-.47,.71-1.19,.65-1.93,.62-.3,0-.62,.03-.91,.1-.69,.17-.87,.69-.42,1.19,.32,.35,.72,.64,1.27,.63,.47,0,.8,.1,.98,.55,.2,.47,.57,.78,1.19,.85,.29,.03,.62,.18,.88,.7-1.3-.29-2.34,.59-3.52,.04-.27-.13-.61,0-.79,.28-.17,.27-.15,.56,.1,.76,.36,.3,.59,.53,.32,1.05-.27,.52-.05,.79,.67,.91,.42,.07,.58,.2,.66,.56,.09,.42,.43,.75,.91,.55,1.06-.43,1.48,.31,2.16,.79-.5,.3-.93,.22-1.3,.07-.6-.23-.73,.38-1.1,.51-.74-.92-1.69-1.06-2.52-.35-.23,.2-.38,.29-.68,.19-.39-.13-.78-.13-1.01,.23-.23,.37,.01,.66,.31,.91,.08,.06,.12,.16,.18,.25-.23,.37-.67,.47-.99,.71-.52,.4-.39,1.11,.26,1.19,.81,.1,1.5,.58,2.44,.38,1.01-.22,1.2,.05,1.27,1.03,.08,1.08,.32,1.2,1.39,.65,.08-.04,.14-.03,.17,.04-.18,.96-.26,1.04-1.26,1.12-.28,.02-.53,.06-.77,.19-.71,.36-1.37,.37-2.01-.16-.37-.31-.9-.45-1.23-.05-.37,.45-.83,.53-1.36,.65-.55,.13-.63,.45-.25,.84,.24,.25,.63,.38,.64,.81,0,.58,.47,.85,1.04,.93,.45,.06,.66,.2,.68,.65,.01,.52,.45,.78,.96,.64,.87-.23,1.63,.18,2.46,.18-2.02,.9-4.11,.96-6.25,.43-.32-.08-.68-.17-.79,.15-.19,.54-.6,.76-1.13,.92-.36,.11-.54,.36-.57,.71-.02,.28-.05,.55-.07,.83-.04,.83,.5,1.26,1.36,1.02,.51-.14,.95-.19,1.43,.05,.19,.1,.45,.1,.67,.1,.15,0,.29,0,.4,.02-1.48,.18-2.92,.61-4.34,1.32-.25,.12-.65,.37-.73,.82-.29,.6,1.36,1.74,2.22,1.87,.96,.15,1.71,.29,2.68,.42,.52,.07,1.11,.18,1.62,.31,.45,.12,1.06,.16,1.51,.31,5.19,.47,10.39,.96,15.59,1.38,9.56,.35,19.13,1.28,28.69,1.02,7.13-.19,12.67-.59,19.8-.19,3.14-.11,7.87-.77,11.01-.88,6.92-.24,13.83-.82,20.74-1.34,1.72-.2,2.99-.71,4.51-.78,1.09-.05,2.17-.35,3.07-1.38,.18-.21,.35-.58,.37-.9,0-.17-.28-.47-.48-.57Z"/><path class="cls-1" d="M112.37,75.49c-.21,.18-.39,.4-.6,.5-2.25,1.04-4.58,1.48-6.98,1.51-2.13,.02-4.3-.17-6.39,.22-4.04,.74-4.5,.74-8.55,.86-4.02,.12-4.77,.34-8.78,.44-.48,.01-.95,.15-1.59,.25,.7,.83,1.37,.79,2.03,.81,2.89,.1,2.51-.03,5.39,.17,2.04,.13,1.34,.06,3.38,.31,.75,.09,4.03,.24,4.78,.27,2.72,.09,2.05,.4,4.77,.5,.5,.02,1,.11,1.49,.23,.65,.14,1.03,.62,1.02,1.65-.41,.16-.82,.42-1.24,.48-1.08,.15-2.17,.34-3.25,.28-1.32-.07-2.54,.46-3.82,.6-5,.59-6.5,1.04-11.52,.97-.71-.01-1.42,.15-2.12,.22-2.63,.25-1.35,.35-3.98,.56-1.66,.14-3.34,.18-5.01,.27-.4,.02-.86-.08-1.06,.71,.19,.13,.37,.34,.57,.41,1.13,.35,2.26,.71,3.41,.96,.73,.17,1.49,.18,2.25,.24,2.67,.19,1.45,.39,4.11,.78,2.15,.32,.77,.47,2.94,.63,.25,.02,.49,.13,.74,.18,.44,.1,.65,.42,.62,.97-.02,.54-.12,1.05-.65,1.14-.74,.14-1.49,.31-2.24,.36-1.17,.06-2.34,.03-3.51,.05-.42,.01-.85,.01-1.25,.11-3.64,.9-7.33,.72-11,.87-.1,0-.21,.01-.31,.02,.9,.39,1.83,.77,2.62,.82,1.19,.41,.83,.71,2.53,1.33,.27,.05,.55,.05,.82,.14,.53,.18,.65,.53,.6,1.93-.61,.19-1.24,.46-1.87,.55-1.17,.18-2.34,.23-3.51,.39-.95,.12-1.89,.38-2.83,.46-2.21,.19-3.73,.28-4.29,.32h-8c-.64-.07-1.23-.15-1.83-.19-2.19-.14-4.39,.04-6.56-.82-.24-.1-.5-.1-.75-.11-.7-.02-1.4,.01-2.09-.05-.45-.04-.89-.21-1.34-.33-.32-.09-.37-.57-.39-1.09,0-.53,.11-.83,.38-.92,.14-.05,.29-.16,.44-.18,1.29-.15,.47-.29,1.75-.59,1.59-.37,.86-.57,2.45-.75,.45-.05,.91-.06,1.35-.22,.48-.18,.96-.4,1.44-.63-1.15-.06-2.6-.13-4.28-.22-1.58-.09-3.16-.36-4.74-.49-1.96-.16-3.92-.21-5.88-.4-1.07-.1-2.12-.39-3.14-.58-.08-1.48,.11-1.85,1-2.04,.45-.09,.92-.08,1.38-.14,2.85-.65,2.24-.97,4.24-1.4,2.01-.07,4.61-.99,6.69-1.45-.39-.97-1.73-1.03-2.31-1.07-1.96-.12-2.54-.28-4.5-.44-2.42-.2-1.57-.17-3.98-.34-1.88-.14-1.1-.01-2.98-.11-3.6-.2-4.9-.4-8.47-.9-1.91-.27-3.82-.42-5.73-.55-.7-.04-1.39-.34-2.08-.52-.46-.11-.62-.47-.59-1.01,.03-.56,.29-.83,.72-.87,1.25-.13,2.5-.32,3.75-.38,2.47-.1,4.94-.07,7.41-.2,1.45-.08,2.9-.44,4.36-.54,3.43-.24,1.01-.28,4.44-.47,.75-.04,1.5-.06,2.25-.14,.22-.02,.42-.22,.64-.34-.22-.8-.71-.57-1.08-.58-2.18-.07-4.36-.11-6.53-.16-3.68-.08-1.53-.23-5.21-.38-2.29-.1-4.57-.38-6.86-.57-1.25-.1-2.51-.19-3.76-.27-1.96-.13-3.92-.21-5.88-.39-.57-.05-1.11-.38-1.67-.57-.32-.11-.64-.2-.96-.29-.61-.15-1.21-.29-1.81-.44,.14-1.64,.56-2.18,1.82-2.23,2.59-.11,5.19-.1,7.78-.3,1.69-.13,85.31-.25,87.01-.47l.86,.05c.61,.04,.39-.04,1,.05,1.08,.16,2.16,.34,3.24,.39,2.47,.13,4.94,.18,7.41,.25,1.02,.03,1.62,.64,1.87,1.92Z"/></g><g><path class="cls-1" d="M169.45,32.66c-1.49-2.47-3.56-4.41-6.19-5.83-2.64-1.41-5.69-2.12-9.15-2.12l-10.22,.07h-7.56v50.4h8.35v-17.42h10.51c3.22,0,6.07-.71,8.57-2.13,2.5-1.41,4.44-3.36,5.83-5.83,1.39-2.47,2.09-5.31,2.09-8.53s-.75-6.13-2.23-8.61Zm-8.5,14.94c-1.53,1.64-3.5,2.45-5.9,2.45h-10.37v-17.64h9.29c1.82-.04,3.43,.32,4.82,1.08,1.39,.77,2.49,1.82,3.28,3.13,.79,1.33,1.19,2.85,1.19,4.58,0,2.64-.77,4.77-2.31,6.4Z"/><polygon class="cls-1" points="213.22 67.55 213.22 75.18 181.97 75.18 181.97 24.78 213.01 24.78 213.01 32.41 190.33 32.41 190.33 45.8 210.34 45.8 210.34 53.29 190.33 53.29 190.33 67.55 213.22 67.55"/><polygon class="cls-1" points="257.07 67.55 257.07 75.18 225.89 75.18 225.89 24.78 234.25 24.78 234.25 67.55 257.07 67.55"/><path class="cls-1" d="M293.43,24.78h-8.85l-20.09,50.4h8.85l4.83-12.38h21.74l4.83,12.38h8.85l-20.16-50.4Zm-12.37,30.6l7.98-20.45,7.98,20.45h-15.96Z"/><path class="cls-1" d="M366.57,54.3h.01v-.5c0,.17,0,.33-.01,.5Z"/><path class="cls-1" d="M366.58,48.68v5.12c0,.17,0,.33-.01,.5-.06,4.35-1.03,8.13-2.9,11.34-1.95,3.34-4.64,5.9-8.07,7.71-3.43,1.79-7.38,2.69-11.84,2.69-5.09,0-9.61-1.11-13.57-3.34-3.96-2.23-7.07-5.31-9.33-9.22-2.25-3.91-3.38-8.39-3.38-13.43s1.13-9.66,3.38-13.57c2.26-3.91,5.37-6.98,9.33-9.22,3.96-2.23,8.48-3.34,13.57-3.34,2.93,0,5.67,.45,8.24,1.36,2.57,.92,4.89,2.15,6.95,3.71s3.74,3.38,5.04,5.44l-6.77,4.32c-.91-1.39-2.09-2.64-3.53-3.74-1.44-1.11-3.01-1.96-4.71-2.56-1.71-.6-3.45-.9-5.22-.9-3.46,0-6.52,.79-9.18,2.38-2.67,1.58-4.77,3.75-6.3,6.51-1.54,2.76-2.31,5.97-2.31,9.61s.76,6.72,2.27,9.51c1.51,2.78,3.63,4.97,6.34,6.55,2.71,1.58,5.84,2.38,9.39,2.38,2.79,0,5.28-.58,7.49-1.73,2.21-1.16,3.95-2.76,5.22-4.83,1.17-1.89,1.8-4.06,1.89-6.48h-12.08v-6.77h20.09Z"/><path class="cls-1" d="M378.18,75.18V24.78h8.35v50.4h-8.35Z"/><path class="cls-1" d="M424.97,24.78h-8.85l-20.09,50.4h8.86l4.83-12.38h21.73l4.83,12.38h8.85l-20.16-50.4Zm-12.36,30.6l7.97-20.45,7.98,20.45h-15.95Z"/></g></g></svg>